<svg xmlns="http://www.w3.org/2000/svg" viewBox="0 0 499 501.54"><defs><style>.cls-1{fill:#080405;fill-rule:evenodd;}</style></defs><g id="Layer_2" data-name="Layer 2"><g id="New_Layer" data-name="New Layer"><path class="cls-1" d="M178.6,4.7c4.4,7.6,4.8,8.3,5.6,8.3S192,1.7,192,.4c0-.5-1.8,2-3.9,5.5l-3.9,6.3-3.1-5.3c-1.7-3-3.1-5.7-3.1-6.2s-.5-.7-1.1-.7S177.1,2.1,178.6,4.7Z"/><path class="cls-1" d="M293.6,3.6l-1.7,3.6,3.3-.5c1.8-.4,6.2-.9,9.6-1.3l6.4-.7-2.1,4.2L307,13l3.7-.1a104.16,104.16,0,0,0,11.1-1.2l7.2-1.2-3.5-5.2L322,.1H308.7L295.4,0Z"/><path class="cls-1" d="M426,.7c0,.5,1.4,2.8,3,5.3,3.7,5.5,3.9,4.8.4-1.4C426.9.2,426-.9,426,.7Z"/><path class="cls-1" d="M438.7,3.7c-1.3,2.1-2.9,4.8-3.6,6.1s-1.7,2-2.3,1.6-.8-.2-.3.6c.9,1.5,3.4-1.2,7.3-8C442.7-1.1,441.8-1.3,438.7,3.7Z"/><path class="cls-1" d="M117.4,64.6c1.2,3.3,13.7,24.4,14.4,24.4.9,0,6.9-9.4,11.7-18.3l3.7-6.7H134.3c-7,0-13.9-.3-15.2-.7C117,62.8,116.8,62.9,117.4,64.6Z"/><path class="cls-1" d="M234.5,64.2c-1.1,3.6-6.8,40.8-6.3,41.3s28.6-9.6,38-13.9l4.7-2.1-8.1-6c-4.5-3.3-12-9.3-16.7-13.2C237.5,63,235.3,61.9,234.5,64.2Z"/><path class="cls-1" d="M366.1,63.7c1.6,4,14.6,25.2,15.4,24.9,1-.3,14.5-22.4,14.5-23.8,0-.4-5.3-.8-11.9-.8s-13.3-.3-15.1-.7C367,62.9,365.9,63.1,366.1,63.7Z"/><path class="cls-1" d="M0,81.7v8.7L4.5,86C7,83.6,9,81.3,9,81s-2-2.3-4.5-4.3L0,72.9Z"/><path class="cls-1" d="M102,125.7c.1,1.5,13.8,25.3,14.6,25.3a37.23,37.23,0,0,0,3.9-5.5c3-4.7,4-5.5,6.6-5.5h3l-4.1,7.6c-2.3,4.2-5.3,9.4-6.7,11.6l-2.6,3.8-1.8-3a18.58,18.58,0,0,1-1.9-3.5,79,79,0,0,0-5-8.6c-2.7-4.4-5-8.2-5-8.4s1-.6,2.3-.8c1.9-.4,1.8-.4-.5-.6-1.6,0-2.8.3-2.8.9,0,1.3,14.1,25,14.9,25S131,141.7,131,140.2c0-.7-1.3-1.2-3-1.2s-3-.2-3-.5a23.19,23.19,0,0,1,2.5-4.4,36.54,36.54,0,0,0,3.1-6.5l.6-2.6H116.6C108.6,125,102,125.3,102,125.7Zm28,1.1c0,.2-1.5,3-3.2,6.3l-3.3,5.9h-6.2c-6.7,0-6.6.1-12.2-9.2l-2.2-3.7,13.5.2C123.9,126.4,130,126.6,130,126.8Zm-8,13.8c0,1.1-4.5,8.4-5.2,8.4s-4.8-7.3-4.8-8.5c0-.3,2.3-.5,5-.5S122,140.2,122,140.6Z"/><path class="cls-1" d="M351.2,125.8c.9,2.6,14.4,25.1,14.9,25.2s2.2-2.5,4-5.5c2.9-4.8,3.7-5.5,6.6-5.5h3.2l-4.1,7.2c-2.3,4-5.3,9.3-6.9,11.7l-2.7,4.4-2.9-5.2c-1.5-2.9-4.7-8.3-7-11.9-4.1-6.5-4.2-6.7-2-7.4,2-.5,1.9-.6-.5-.7-1.6-.1-2.8.2-2.8.6.1.7,11.3,20.2,14,24.3,1.3,1.9,2.2.8,9.6-11.7s7.2-12.1,3-12.5l-3.5-.3,2.9-4.6c5.3-8.6,5.6-8.4-11.3-8.7C357.4,125.1,351,125.3,351.2,125.8Zm25.3,6.7-3.4,6-6.4.3-6.4.3-4.1-6.5-4.1-6.5,13.9.2,13.8.2Zm-6.8,11.7c-1.4,2.3-2.9,4.4-3.4,4.5s-1.9-1.7-3.1-4.2L361,140h11.2Z"/><path class="cls-1" d="M201.4,147.3c-12.6,6.9-33.3,19.1-33,19.4s2.5-.7,23.1-12.5l14-8.1.5,20.7c.3,11.4.5,20.8.4,21a26.63,26.63,0,0,1-4.7-2.4l-4.7-2.6V172.4c0-5.7-.3-10.4-.6-10.4a100.84,100.84,0,0,0-9.2,5.1c-8.6,5.1-8.7,5.1-11.6,3.5-1.6-.9-3.1-1.5-3.3-1.2s.8,1.1,2.2,1.9l2.8,1.4-9.2,5.3c-5,2.9-9,5.8-8.8,6.4.4,1.1,13.9,9.3,30.1,18l8.9,4.9-.5-11.2c-.4-6.7-.2-11.1.4-11.1a21.2,21.2,0,0,1,5.2,2.5l4.3,2.5-.5-21.7c-.2-12-.7-22.1-1.1-22.5S203.6,146,201.4,147.3Zm-5.6,29.6-.3,5.1-7.3-4.4c-4.1-2.4-7.3-4.7-7.3-5.1s1.7-1.6,3.7-2.7,5.4-3,7.3-4.3l3.6-2.2.3,4.3A72.11,72.11,0,0,1,195.8,176.9Zm-8.3,1.8,8.5,4.7v4c0,2.3.3,7.1.6,10.8s.3,6.8-.1,6.8-6.8-3.5-14.3-7.9-15.6-8.8-17.9-10c-3.9-1.9-5.7-4.1-3.4-4.1.5,0,4.2-2,8.3-4.4s7.8-4.5,8.5-4.5S182.8,176.1,187.5,178.7Z"/><path class="cls-1" d="M60,176.3a101.58,101.58,0,0,1-3.9,9.9c-.4.5-2.1-1.1-3.9-3.4-2.1-2.8-3.3-3.7-3.7-2.7-.3.8-2.7,7.2-5.5,14.4s-4.8,13.1-4.6,13.3c.6.5,27.4-3.1,28.8-3.9.8-.5.4-1.8-1.6-4.4-1.6-2-2.6-3.7-2.5-3.9s4.4-.8,9.3-1.4a69.85,69.85,0,0,0,9.4-1.6c.6-.7-1.2-3.4-10.6-15.3l-8-10.2Z"/><path class="cls-1" d="M308.9,177.6l-3.4,9.6-3.6-4.2-3.6-4.1-1.7,4.8c-1,2.6-3.4,9-5.3,14.1s-3.4,9.5-3.1,9.7c.5.5,21.3-1.9,27-3.1l2.8-.6-2.5-3.2c-1.4-1.8-2.5-3.7-2.5-4.3s4.1-1.5,9.2-2.2a66,66,0,0,0,9.6-1.6c.6-.6-17.3-23.7-18.8-24.3C312.6,168.1,310.7,172.3,308.9,177.6Z"/><path class="cls-1" d="M123.3,190.2c-2,2.4-21.3,34.9-21.3,35.8,0,.5,10.1,1.1,22.9,1.2,15.1.2,22.7,0,22.3-.7s-3.3-5.5-6.7-11-7.9-13.2-9.9-17C125.8,189.7,124.7,188.4,123.3,190.2Zm5.2,7c1.4,2.6,5.6,10,9.5,16.4s6.8,11.9,6.6,12.1-9.6.2-21,.1l-20.6-.3,10.7-17.7c7-11.5,11-17.3,11.6-16.5C125.7,192,127.2,194.6,128.5,197.2Z"/><path class="cls-1" d="M362.1,207.5c-6.1,10.2-11.1,18.7-11.1,19s10.4.6,23,.7,23,.2,23,0-2.9-4.9-6.3-10.5-8.5-14.1-11.1-19-5.1-8.7-5.6-8.7S368.2,197.3,362.1,207.5Zm25.8,7,6.9,11.5H352.2l9.5-15.8c5.2-8.6,10.2-16.8,11-18.1,1.5-2.3,1.5-2.3,4.9,4.3C379.5,200,384.2,208.2,387.9,214.5Z"/><path class="cls-1" d="M47.2,246.2c-2.3,5-4,9.4-3.7,9.7s4.2,0,8.7-.7,8.4-.9,8.7-.6-.2,1.9-1.2,3.5a18.38,18.38,0,0,0-1.7,3.8c0,.7,14.1-.4,18.8-1.4,2-.5,2.1-.8,1-2.9C76,254.4,67.6,243.1,67,243c-.4,0-1.2,1.6-1.9,3.5S63.5,250,63,250s-2.9-2.9-5.5-6.5-4.9-6.5-5.3-6.5S49.6,241.1,47.2,246.2Z"/><path class="cls-1" d="M169.3,237.7c4.3,8.2,14.1,24.3,14.7,24.3a1.88,1.88,0,0,0,1.5-1c.3-.5,0-.7-.7-.5-.9.4-2.1-.9-3.2-3.2-2.1-4.5-11.7-20.3-12.3-20.3C169.1,237,169.1,237.3,169.3,237.7Z"/><path class="cls-1" d="M185.2,237.7l12.6.4-4.5,8.1c-2.4,4.4-5.1,9.2-6,10.5s-1.3,2.3-1,2.3c1,0,12.7-19.8,12.7-21.5,0-.3-6-.4-13.2-.3l-13.3.2Z"/><path class="cls-1" d="M419.5,238.5c1.2,3.8,13,23.4,14,23.5,1.2,0,14.5-21.9,14.5-23.8,0-.9-3.5-1.1-13.2-1l-13.3.2,12.8.3c7,.2,12.7.6,12.7.8,0,.8-11.2,20-12.5,21.4-1.1,1.1-1.7.7-3.3-2.6C428.1,251.4,418.7,236.2,419.5,238.5Z"/><path class="cls-1" d="M234.5,314.2c-.9,4-5.7,32.1-6.2,36.5-.4,2.7-.2,4.3.5,4.3,1,0,14.8-5,33.6-12.3l8.9-3.4-9.4-7c-5.2-3.8-12.9-10-17.2-13.6s-8.2-6.7-8.7-6.7S234.8,313,234.5,314.2Z"/><path class="cls-1" d="M484,312.8c0,.4-1.6,9.9-3.5,21.1s-3.4,20.6-3.1,20.8c.5.5,7-1.5,16.4-4.9l5.2-1.9V322.5l-6.4-5.3C486.5,312.3,484,311,484,312.8Z"/><path class="cls-1" d="M117,313.7c0,.3,3.3,6.2,7.2,12.9,5.7,9.7,7.5,12.1,8.5,11.1,2.4-2.4,14.2-23,13.7-23.8C145.8,312.9,117,312.7,117,313.7Z"/><path class="cls-1" d="M367.1,315.2c2.2,4.4,14,23.8,14.4,23.8.7,0,14.5-23.6,14.5-24.8,0-.9-3.9-1.2-15-1.2H365.9Z"/><path class="cls-1" d="M0,335.5c0,8.4.3,12.4,1,12s5.5-2.3,11-4.4l10-3.8-9.2-6.9c-5.1-3.8-10-7.5-11-8.2C.1,323,0,323.5,0,335.5Z"/><path class="cls-1" d="M102,375.1c0,.7,1.4,3.4,3,6.1,3.5,5.6,3.6,6.5,1.3,7.1-1.2.3-.8.5.9.6,2,.1,3.2,1.1,4.9,4.1,1.2,2.2,2.4,3.8,2.6,3.6s-.6-2-1.8-4l-2.1-3.6h5.6c3.1,0,5.6.4,5.6,1,0,2.2-5.1,9.1-6.2,8.4-.7-.4-.8-.3-.4.4,1.2,2,2,1.4,5.4-4.3,2.8-4.7,3.8-5.5,6.3-5.5,1.6,0,2.9.2,2.9.4,0,.4-8.4,15.7-10.8,19.5-1.3,2.2-1.3,2.4,0,1.1,2.2-2.2,10.7-16.6,11.4-19.5.6-2.3.3-2.5-2.6-2.5h-3.1l3-5.4c1.7-2.9,3.1-5.9,3.1-6.5,0-.8-3.6-1-11.7-.9l-11.8.2,11.3.3c6.2.2,11.2.7,11,1.1s-1.6,3.1-3.1,5.9L124,388H110.5l-3.8-6.1c-2-3.3-3.5-6.5-3.1-7a.55.55,0,0,0-.5-.9A1.11,1.11,0,0,0,102,375.1Z"/><path class="cls-1" d="M351,374.7a70.41,70.41,0,0,0,3.5,6.9c3.1,5.5,3.3,6.3,1.8,6.7s-1.3.5.4.6c1.5.1,3.2,1.7,5.5,5.6,1.8,3,3.6,5.5,3.9,5.5s2.1-2.3,3.8-5c3.3-5.3,4.7-6.4,7.9-5.8,1.8.3,1.4,1.4-4.3,11.3-3.5,6-6.7,11.1-7.2,11.2s-3.2-4.2-6.2-9.6c-5.8-10.5-10.9-18-7.5-11.1,3.8,8,12.8,22,13.8,21.7,1.3-.4,13-19.2,14-22.5.7-2,.4-2.2-2.8-2.2h-3.5l3.5-5.7c1.9-3.1,3.4-6,3.4-6.5s-5.3-.7-11.7-.6l-11.8.2,11.2.3,11.1.4-3.2,5.7-3.2,5.7-6.9.3-7,.2-3.5-6.2c-1.9-3.4-3.4-6.5-3.2-7s-.2-.8-.8-.8S351,374.3,351,374.7Zm20.3,15c.3.5-.8,2.8-2.3,5.2l-2.8,4.4-2.6-4.5a39,39,0,0,1-2.6-5.1C361,388.7,370.8,388.8,371.3,389.7Z"/><path class="cls-1" d="M102.4,389.5c1.4,4.1,14,24.4,14.9,23.8.4-.3.2-1-.6-1.6s-3.1-4.4-5.2-8.2C106.8,394.9,101.5,386.8,102.4,389.5Z"/><path class="cls-1" d="M189,403.7c-9.1,5.2-16.9,9.9-17.5,10.5-1.4,1.4,1.7-.2,19.2-10.3l15.2-8.7.3,20.7c.2,11.3.2,20.8.1,21s-2.3-.9-4.8-2.3l-4.5-2.7V422c0-6.4-.4-10-1.1-10s-4.8,2.2-9.3,4.9l-8.3,4.9-4.6-2.6c-2.6-1.4-4.4-3-4-3.5s.1-.7-.5-.3c-1.8,1.1-1.6,1.3,3.4,4.2,3.3,1.9,4.2,2.9,3.3,3.5-.8.4-4.7,2.7-8.8,5.1s-7.6,5-7.9,5.8c-.3,1.1-.1,1.2.5.2.5-.7,4.9-3.5,9.7-6.2l8.7-5.1,8.7,4.9,8.7,4.9.8,9.4c1.1,14,1.5,13.5-8.3,7.7-11.3-6.7-27-15.1-27-14.5s5.9,4,26.4,15.6l10.9,6.1-.5-11.5c-.3-6.3-.2-11.5.1-11.5a28.22,28.22,0,0,1,5.2,2.9l4.5,2.8-.4-22.1c-.2-12.1-.7-22.4-1.1-22.7S198.1,398.5,189,403.7Zm6.6,27c-.3.4-14.2-7-15.4-8.2-.2-.2,3.2-2.4,7.5-4.9l7.8-4.5.3,8.6C196,426.4,195.9,430.5,195.6,430.7Z"/><path class="cls-1" d="M447.5,398.6c-4.4,2.5-12.8,7.3-18.7,10.7s-10.8,6.4-10.8,6.9,1.8,2,4,3.4a43.53,43.53,0,0,1,4,2.9c0,.1-4.1,2.6-9.2,5.5l-9.1,5.3,2.2,1.8c1.3,1,8.4,5.3,15.9,9.5s15.5,8.7,17.7,9.9l4,2.3-.3-11.5-.4-11.4,5.1,2.6L457,439l-.2-8.2-.2-8.3-.3,7.2c-.2,4-.6,7.3-1,7.3a26.91,26.91,0,0,1-4.4-2.2l-3.8-2.1-.3-10c-.2-5.7-.7-10.2-1.3-10.4s-4.8,1.9-9.5,4.5l-8.4,4.8-4.3-2.4a21.29,21.29,0,0,1-4.3-2.7c0-.6,34.9-20.5,36-20.5a1.08,1.08,0,0,0,1-1C456,393.6,456.4,393.5,447.5,398.6ZM446,422c0,4.9-.4,9-.9,9-1.4,0-15.1-8.1-15.1-8.8s13.9-9.1,15.3-9.1C445.7,413,446,417,446,422Zm-7.7,6.8,7.7,4.4v10.4c0,5.7-.3,10.4-.6,10.4s-8.7-4.6-18.5-10.1L409,433.7l9.2-5.2c5.6-3.2,9.8-5,10.8-4.6C429.8,424.2,434,426.5,438.3,428.8Z"/><path class="cls-1" d="M455.4,409.5c0,6.6.1,9.2.3,5.7s.2-8.8,0-12S455.4,402.9,455.4,409.5Z"/><path class="cls-1" d="M61.3,422c-1.1,3-2.6,7.2-3.2,9.2s-1.6,4-2.1,4.3-2.1-1-3.6-3c-3.2-4.2-4-4.3-4.9-.8-.3,1.6-2.7,7.9-5.2,14.1s-4.4,11.5-4.2,11.6c.8.7,29.9-3.7,29.9-4.5a13.91,13.91,0,0,0-2.7-3.9c-3.3-3.9-2.5-4.5,6.7-5.4,7.2-.6,10-1.4,10-2.5,0-.4-3.3-4.8-7.2-9.8s-8.2-10.4-9.4-11.9l-2.1-2.9Z"/><path class="cls-1" d="M311.1,420.7c-4.1,12-5.4,15.3-6,15.3-.4,0-2-1.8-3.7-4l-3.1-3.9-2.8,8.2c-1.6,4.5-3.9,10.6-5.2,13.5-3.7,8.4-4.2,8.1,12.5,5.9,8.1-1,14.9-2.1,15.1-2.2s-1.1-2.2-2.8-4.4l-3.1-3.9,2.7-.6c1.6-.3,5.5-.8,8.9-1.1s6.6-1,7.3-1.4c.9-.6-1.6-4.4-8.4-13-5.3-6.6-9.7-12.1-9.9-12.1A23.1,23.1,0,0,0,311.1,420.7Z"/><path class="cls-1" d="M112.6,457.1c-5.9,9.9-10.6,18.3-10.4,18.5s2.5-3.1,5-7.4,7.2-12,10.3-17.2,6-9.9,6.4-10.3,4.3,5.4,8.6,13,9.2,15.7,10.7,18l2.9,4.3-20.8.3-20.8.2,21.8.3,21.7.2-5.2-8.3c-2.8-4.5-7.8-13-11.2-19s-6.5-10.7-7.2-10.7S118.4,447.1,112.6,457.1Z"/><path class="cls-1" d="M365,451.7c-4.1,7-9,15.4-10.8,18.7-5.9,10.7-.7,2.9,9.5-14,5.4-9,10-16.4,10.3-16.4s1.7,2.4,3.2,5.3,6.1,10.8,10.2,17.7l7.4,12.5-19.7.5-19.6.6,20.8.2,20.8.2-1.2-2.2c-.7-1.2-2.8-4.7-4.8-7.8s-6.3-10.4-9.6-16.5-6.7-11.1-7.5-11.2C373,439.1,369.8,443.6,365,451.7Z"/><path class="cls-1" d="M169.1,486.6c1.7,3.8,6.1,11.4,6.9,11.9,1.7,1.1,1.1-.4-2.5-6.1L170,487l13.3.6c7.2.4,13.4.8,13.6,1s-.9,2.4-2.4,4.9-2.4,4.9-2.2,5.2c.3,7.3,1.6-1.5,2.9-3.9,2.4-4.6,3.9-7.8,3.5-7.8C194.5,486.3,168.9,486,169.1,486.6Z"/><path class="cls-1" d="M419,486.9c0,1.5,6.4,12.1,7.2,12.1.5,0-.7-2.5-2.7-5.5a60.6,60.6,0,0,1-3.5-6c0-.2,6-.3,13.3,0,9.5.3,11.7.2,7.7-.5C433.5,485.9,419,485.8,419,486.9Z"/><path class="cls-1" d="M444,493.3c-1.8,3.4-2.7,5.7-1.9,5,1.7-1.3,6.3-10.2,5.7-10.8C447.6,487.3,445.9,489.9,444,493.3Z"/><path class="cls-1" d="M299.49,269.81l8.57-1.35-1.75,4.33-1.68,4.29,4.28-.67c2.35-.31,8.11-1.12,12.7-1.77s8.49-1.32,8.52-1.62c.18-.57-9.79-14.9-12.93-18.61l-1.55-1.81-1.43,3.12a11.1,11.1,0,0,1-2.25,3.57c-.38.2-2.74-2.42-5.27-5.88a53.9,53.9,0,0,0-5-6.42c-.69-.2-11.06,22.24-10.92,23.59C290.89,270.91,294.8,270.62,299.49,269.81Z"/><path class="cls-1" d="M447.23,123.44c-9.1,5.2-16.9,9.9-17.5,10.5-1.4,1.4,1.7-.2,19.2-10.3l15.2-8.7.3,20.7c.2,11.3.2,20.8.1,21s-2.3-.9-4.8-2.3l-4.5-2.7v-9.9c0-6.4-.4-10-1.1-10s-4.8,2.2-9.3,4.9l-8.3,4.9-4.6-2.6c-2.6-1.4-4.4-3-4-3.5s.1-.7-.5-.3c-1.8,1.1-1.6,1.3,3.4,4.2,3.3,1.9,4.2,2.9,3.3,3.5-.8.4-4.7,2.7-8.8,5.1s-7.6,5-7.9,5.8c-.3,1.1-.1,1.2.5.2.5-.7,4.9-3.5,9.7-6.2l8.7-5.1,8.7,4.9,8.7,4.9.8,9.4c1.1,14,1.5,13.5-8.3,7.7-11.3-6.7-27-15.1-27-14.5s5.9,4,26.4,15.6l10.9,6.1-.5-11.5c-.3-6.3-.2-11.5.1-11.5a28.22,28.22,0,0,1,5.2,2.9l4.5,2.8-.4-22.1c-.2-12.1-.7-22.4-1.1-22.7S456.33,118.24,447.23,123.44Zm6.6,27c-.3.4-14.2-7-15.4-8.2-.2-.2,3.2-2.4,7.5-4.9l7.8-4.5.3,8.6C454.23,146.14,454.13,150.24,453.83,150.44Z"/></g></g></svg>